<?xml version="1.0" encoding="UTF-8" standalone="no"?>
<!-- Created with Inkscape (http://www.inkscape.org/) -->

<svg
   width="100mm"
   height="100mm"
   viewBox="0 0 377.95277 377.95276"
   version="1.1"
   id="svg1"
   xml:space="preserve"
   inkscape:version="1.4.2 (f4327f4, 2025-05-13)"
   sodipodi:docname="рисунок.svg"
   xmlns:inkscape="http://www.inkscape.org/namespaces/inkscape"
   xmlns:sodipodi="http://sodipodi.sourceforge.net/DTD/sodipodi-0.dtd"
   xmlns="http://www.w3.org/2000/svg"
   xmlns:svg="http://www.w3.org/2000/svg"
   xmlns:inkstitch="http://inkstitch.org/namespace"><sodipodi:namedview
     id="namedview1"
     pagecolor="#494949"
     bordercolor="#eeeeee"
     borderopacity="1"
     inkscape:showpageshadow="false"
     inkscape:pageopacity="0"
     inkscape:pagecheckerboard="false"
     inkscape:deskcolor="#383838"
     inkscape:document-units="mm"
     inkscape:zoom="0.7349537"
     inkscape:cx="83.67874"
     inkscape:cy="151.71024"
     inkscape:window-width="1920"
     inkscape:window-height="1027"
     inkscape:window-x="-8"
     inkscape:window-y="-8"
     inkscape:window-maximized="1"
     inkscape:current-layer="layer1"
     showgrid="true"
     inkscape:clip-to-page="false"
     showborder="false"><inkscape:grid
       id="grid6"
       units="mm"
       originx="0"
       originy="0"
       spacingx="3.7795276"
       spacingy="3.7795276"
       empcolor="#ffffff"
       empopacity="0.16078431"
       color="#ffffff"
       opacity="0.05882353"
       empspacing="10"
       enabled="true"
       visible="true"
       dotted="false" /><inkscape:page
       x="0"
       y="0"
       width="377.95276"
       height="377.95276"
       id="page2"
       margin="0"
       bleed="0" /></sodipodi:namedview><metadata
     id="metadata6"><inkstitch:min_stitch_len_mm>0.1</inkstitch:min_stitch_len_mm><inkstitch:collapse_len_mm>3</inkstitch:collapse_len_mm><inkstitch:inkstitch_svg_version>3</inkstitch:inkstitch_svg_version></metadata><defs
     id="defs1" /><g
     inkscape:label="layer 1"
     inkscape:groupmode="layer"
     id="layer1"
     transform="translate(12.24,-42.48)"><path
       id="path1-8-5-5"
       style="fill:#000000;fill-opacity:1;stroke:none;stroke-width:0.133333;stroke-opacity:1"
       d="m 154.51998,253.92834 c -44.66449,22.51127 -52.40918,26.41956 -64.811631,32.74606 -15.306413,7.82327 -35.481797,18.62351 -39.639123,21.24509 -3.297657,2.09034 -6.435776,4.36209 -6.350485,4.6107 0.127966,0.37286 4.033251,-0.67567 6.923461,-1.84815 7.246336,-2.9315 28.584016,-12.93582 44.760825,-21.0161 3.91388,-1.95454 15.374333,-7.66601 25.477563,-12.71718 10.09509,-5.03448 30.30593,-15.23083 38.52995,-19.44258 l -6.0589,1.06704 2.06726,-2.01741 -2.56969,-0.29068 z M 263.8518,112.60305 c -0.27643,0.0163 -0.49066,0.1417 -0.84375,0.39258 -0.92919,0.66901 -2.69528,2.21178 -3.3457,2.91796 -3.88399,4.27423 -9.16122,11.44706 -17.26367,23.50782 -5.57507,8.2883 -7.82366,11.54098 -10.68555,15.33203 -1.18934,1.57961 -2.75085,3.71618 -3.45703,4.73828 -1.78402,2.58312 -36.33032,48.35494 -67.55078,89.48047 v 0.002 l -0.47461,2.83204 2.43554,-0.86719 -0.9707,2.71875 4.97461,-3.61914 c 5.19208,-6.87902 11.45177,-15.14321 15.33203,-20.20703 4.81316,-6.28126 13.97443,-18.37939 20.36719,-26.85352 6.41135,-8.49271 15.42441,-20.40552 20.07031,-26.51953 4.64591,-6.09543 10.1101,-13.34137 12.1543,-16.12891 2.0442,-2.76896 4.40297,-5.85491 5.25781,-6.83984 2.80613,-3.23355 6.3939,-7.65568 10.55664,-13.04492 10.75991,-13.90055 15.38663,-20.75805 16.07422,-23.75001 0.14867,-0.6876 0.13126,-1.13408 -0.12891,-2.19335 l -0.29882,-1.31836 -0.98438,-0.31641 c -0.60397,-0.18584 -0.94232,-0.27993 -1.21875,-0.26367 z m -3.76172,6.09765 c 0.14868,0 0.55707,0.27973 0.91016,0.63282 0.35309,0.35309 0.63281,0.79854 0.63281,0.98437 0,0.20443 -0.48345,1.02217 -1.07812,1.83985 -0.59468,0.79909 -2.06355,2.8811 -3.27149,4.60937 -2.93622,4.18132 -13.86306,18.73253 -14.01172,18.6582 -0.59468,-0.27876 -1.52343,-0.96757 -1.52343,-1.09765 0,-0.446 1.85866,-3.38113 4.83203,-7.59961 0.68759,-0.96635 2.17398,-3.12145 3.32617,-4.77539 1.1336,-1.65395 3.01093,-4.20181 4.14453,-5.66992 3.6238,-4.6459 4.60742,-5.94604 4.60742,-6.11329 0,-0.27876 1.15289,-1.46875 1.43164,-1.46875 z" /><g
       id="g2"
       style="stroke:#ff0000;stroke-width:18.8976;stroke-dasharray:none;stroke-opacity:1"><ellipse
         style="fill:none;stroke:#ff0000;stroke-width:18.8976;stroke-linejoin:round;stroke-dasharray:none;stroke-opacity:1"
         id="path1"
         cx="176.73637"
         cy="231.45638"
         rx="179.52756"
         ry="179.52753" /><path
         style="fill:none;stroke:#ff0000;stroke-width:18.8976;stroke-linejoin:round;stroke-dasharray:none;stroke-opacity:1"
         d="M 43.109899,97.8299 310.36286,365.08286"
         id="path2"
         sodipodi:nodetypes="cc" /></g></g></svg>
